# xmcd CD database file
#
# Track frame offsets:
#	150
#	15744
#	38887
#	62625
#	82043
#	114167
#	136091
#	150714
#	179914
#	196228
#	212214
#	231716
#	244030
#	258317
#	279496
#	296785
#
# Disc length: 4239 seconds
#
# Revision: 2
# Processed by: cddbd v1.5.2PL0 Copyright (c) Steve Scherf et al.
# Submitted via: CDex 1.51
#
DISCID=ef108d10
DTITLE=Blodwyn Pig - All Said And Done  CD 2
DYEAR=2011
DGENRE=Blues
TTITLE0=Road Roller
TTITLE1=How Can A Porr Man Stand Such Times and Live?
TTITLE2=You Got It Wrong
TTITLE3=Deadman's Hill
TTITLE4=I Wonder Who
TTITLE5=Lies
TTITLE6=All Said And Done
TTITLE7=Dear Jill
TTITLE8=Do Re Mi
TTITLE9=Blue Cafe
TTITLE10=Drifting Blues
TTITLE11=Drive Me
TTITLE12=Let Me Love You Baby
TTITLE13=The Victim
TTITLE14=So Much Trouble
TTITLE15=See My Way
EXTD=YEAR: 2011
EXTT0=
EXTT1=
EXTT2=
EXTT3=
EXTT4=
EXTT5=
EXTT6=
EXTT7=
EXTT8=
EXTT9=
EXTT10=
EXTT11=
EXTT12=
EXTT13=
EXTT14=
EXTT15=
PLAYORDER=
